:SAMPLES-PER-SECOND 30
:FRAME-RANGE 1-1700
:FULLY-SPECIFIED
:DEGREES
1594
root  81.768 38.219 101.262 6.57428 78.5329 -8.53397
RightUpLeg  -130.491 -76.0094 117.87
RightLeg  33.5607 41.088 25.0605
RightFoot  -25.2975 37.7212 141.425
RightToes  6.35937e-011 1.2921e-014 -6.02303e-014
Spine  -1.74459 2.64678 1.73983
Spine1  10.159 6.52118 -12.1678
HEad  77.4264 76.359 47.5107
LeftShoulder1  1.61564 -3.12956 -18.8182
LeftArm  121.865 -24.8097 -57.2932
LeftForeArm  -65.2633 -26.6463 -7.89299
LeftHand  -0.107136 1.43684 2.96619
RightShoulder  1.59165 2.27834 22.2728
RightArm  -26.8735 -1.15814 56.5212
RightForeArm  71.3315 -4.74619 2.89618
RightHand  0.0573939 -5.81182 -19.0161
LeftUpLeg  -35.6798 14.6942 2.82443
LeftLeg  18.5601 27.3246 8.30793
LeftFoot  4.04616 -0.141026 0.86231
LeftToes  -1.9349e-011 5.45182e-011 1.33515e-010
1595
root  82.5986 38.4158 100.436 2.07367 80.5892 -13.0439
RightUpLeg  -104.396 -77.9715 91.2141
RightLeg  26.7097 30.6174 15.4286
RightFoot  -21.5071 33.4643 147.888
RightToes  6.35937e-011 1.2921e-014 -6.02303e-014
Spine  -1.3568 2.80512 2.27055
Spine1  10.4603 6.60203 -11.996
HEad  80.6205 78.1883 49.65
LeftShoulder1  1.60034 -3.25049 -18.0661
LeftArm  102.201 -25.7581 -58.757
LeftForeArm  -46.9249 -20.6217 -11.1066
LeftHand  -0.177412 0.422024 4.1363
RightShoulder  1.52786 1.96221 22.7934
RightArm  -26.9106 -0.911695 58.0013
RightForeArm  74.9986 -4.97543 2.73976
RightHand  0.102824 -6.11445 -18.5054
LeftUpLeg  -35.1539 14.1849 1.26002
LeftLeg  18.555 25.6874 8.15186
LeftFoot  2.16033 -0.193291 1.52252
LeftToes  -1.9349e-011 5.45182e-011 1.33515e-010
1596
root  83.4296 38.823 99.6163 -14.6479 82.5207 -29.5837
RightUpLeg  -61.6507 -74.7115 49.8414
RightLeg  21.0928 7.70074 3.05527
RightFoot  -16.1008 20.5877 155.111
RightToes  6.35937e-011 1.2921e-014 -6.02303e-014
Spine  -0.995284 3.08845 4.32167
Spine1  10.617 6.23779 -10.6396
HEad  77.9235 78.9468 45.5747
LeftShoulder1  1.62641 -3.4994 -17.5145
LeftArm  64.7129 -27.0403 -59.5254
LeftForeArm  -11.6799 -9.50183 -18.0534
LeftHand  -0.211784 0.144378 4.71396
RightShoulder  1.74775 2.777 22.535
RightArm  -27.1879 -2.17853 59.3325
RightForeArm  77.558 -4.87078 2.75081
RightHand  0.171664 -6.60904 -17.7139
LeftUpLeg  -33.051 13.3817 1.2801
LeftLeg  16.1844 24.1022 6.99105
LeftFoot  1.33083 -0.276821 2.42041
LeftToes  -1.9349e-011 5.45182e-011 1.33515e-010
1597
root  84.231 39.1555 98.8554 -42.2214 83.2849 -56.5738
RightUpLeg  -26.992 -46.1059 13.446
RightLeg  39.8359 -53.3381 -31.4956
RightFoot  -9.4026 -13.5073 164.379
RightToes  6.35937e-011 1.2921e-014 -6.02303e-014
Spine  -0.576549 3.1912 6.65373
Spine1  11.0291 5.69533 -8.98472
HEad  72.0865 79.0528 38.0215
LeftShoulder1  1.6236 -3.60611 -17.07
LeftArm  26.2333 -27.5613 -59.1015
LeftForeArm  22.9839 2.13964 -18.2334
LeftHand  -0.199598 0.429368 4.666
RightShoulder  2.19899 4.54163 21.8201
RightArm  -28.9262 -4.65566 60.5771
RightForeArm  77.8835 -4.77048 2.2347
RightHand  0.0770801 -6.04179 -16.4141
LeftUpLeg  -30.8255 11.7212 2.36341
LeftLeg  14.9432 23.0415 6.52546
LeftFoot  0.384184 -0.316677 3.06098
LeftToes  -1.9349e-011 5.45182e-011 1.33515e-010
1598
root  85.0133 39.2576 98.2101 -65.818 84.1995 -79.422
RightUpLeg  -26.5656 -23.3282 10.2603
RightLeg  148.07 -24.1218 -166.257
RightFoot  26.3926 -82.2364 138.002
RightToes  6.35937e-011 1.2921e-014 -6.02303e-014
Spine  -0.796591 2.85765 5.71689
Spine1  11.3996 5.07031 -7.77604
HEad  62.3772 77.9977 27.2039
LeftShoulder1  1.63382 -3.79581 -16.5442
LeftArm  6.71949 -26.7364 -58.8994
LeftForeArm  40.7744 6.51252 -15.3726
LeftHand  -0.178554 0.788782 4.45205
RightShoulder  2.18995 4.36366 22.385
RightArm  -29.6929 -4.7216 60.4526
RightForeArm  76.2598 -4.77681 1.86806
RightHand  0.0993537 -6.15184 -17.3036
LeftUpLeg  -29.0351 8.79208 2.13976
LeftLeg  15.1907 23.2973 6.85284
LeftFoot  -1.07056 -0.332268 3.76815
LeftToes  -1.9349e-011 5.45182e-011 1.33515e-010
1599
root  85.7958 39.0779 97.6524 -95.4182 85.5686 -108.058
RightUpLeg  -28.1432 -7.03076 6.20163
RightLeg  140.955 28.2725 160.829
RightFoot  158.017 -50.9857 5.8511
RightToes  6.35937e-011 1.2921e-014 -6.02303e-014
Spine  -1.06987 2.19172 2.0151
Spine1  11.5245 4.37602 -6.68245
HEad  53.6343 75.8266 16.7527
LeftShoulder1  1.69148 -3.93752 -16.9213
LeftArm  2.4052 -25.7727 -58.6593
LeftForeArm  44.4534 7.15075 -14.3501
LeftHand  -0.156733 1.30302 4.31781
RightShoulder  2.08187 4.03646 22.1652
RightArm  -30.6018 -5.01525 60.231
RightForeArm  74.7915 -4.76489 1.43834
RightHand  0.0386503 -5.73347 -17.5384
LeftUpLeg  -28.0225 5.86457 0.300611
LeftLeg  17.8156 23.2351 8.02105
LeftFoot  -3.48353 -0.202365 3.25205
LeftToes  -1.9349e-011 5.45182e-011 1.33515e-010
1600
root  86.5888 38.4707 97.1095 -146.464 85.5763 -158.213
RightUpLeg  -31.8689 -0.00776187 3.11669
RightLeg  105.984 47.6747 114.004
RightFoot  160.503 -16.7939 1.97317
RightToes  6.35937e-011 1.2921e-014 -6.02303e-014
Spine  -0.718471 0.843353 -2.47126
Spine1  10.7392 3.57448 -7.21101
HEad  48.6302 72.8952 10.6273
LeftShoulder1  1.67271 -3.93809 -16.6373
LeftArm  0.5601 -24.281 -58.3616
LeftForeArm  45.7032 7.37884 -13.775
LeftHand  -0.119077 1.93101 3.72121
RightShoulder  2.04695 3.87781 22.311
RightArm  -30.4865 -5.64671 59.5988
RightForeArm  73.6414 -4.83578 1.58034
RightHand  0.0240172 -5.62722 -17.939
LeftUpLeg  -28.7945 3.32332 -3.00049
LeftLeg  24.2731 21.9326 10.4414
LeftFoot  -7.64565 -0.0394444 2.64892
LeftToes  -1.9349e-011 5.45182e-011 1.33515e-010
1601
root  87.4412 37.7575 96.5391 -179.05 82.8849 170.093
RightUpLeg  -35.2684 4.04329 0.213605
RightLeg  75.5484 42.0028 71.8206
RightFoot  158.627 10.5016 -0.157152
RightToes  6.35937e-011 1.2921e-014 -6.02303e-014
Spine  -0.517909 -0.505617 -7.20941
Spine1  10.1405 2.72509 -7.62652
HEad  44.5871 68.9874 5.52109
LeftShoulder1  1.68337 -4.03179 -16.4746
LeftArm  -0.0135344 -23.0192 -57.9989
LeftForeArm  45.234 7.4927 -13.4787
LeftHand  -0.0753432 2.86081 2.83874
RightShoulder  2.00402 3.71959 22.3401
RightArm  -30.6484 -6.40533 58.6505
RightForeArm  73.1713 -4.84868 1.54425
RightHand  0.0153087 -5.56916 -18.0059
LeftUpLeg  -29.0089 1.42323 -6.91921
LeftLeg  30.1484 20.1172 12.3316
LeftFoot  -12.0579 0.0865552 2.25601
LeftToes  -1.9349e-011 5.45182e-011 1.33515e-010
1602
root  88.2347 37.8393 95.8883 -176.263 80.2215 173.664
RightUpLeg  -34.6116 4.24828 1.17371
RightLeg  54.972 29.0891 36.6387
RightFoot  154.117 52.1197 -6.37193
RightToes  6.35937e-011 1.2921e-014 -6.02303e-014
Spine  -0.27078 -0.939577 -7.20637
Spine1  9.66936 1.81887 -6.80127
HEad  41.9015 64.5395 1.81966
LeftShoulder1  1.57838 -3.29053 -17.5449
LeftArm  -0.310232 -22.7863 -57.482
LeftForeArm  45.7771 7.53629 -13.1404
LeftHand  -0.0561051 3.67718 2.59194
RightShoulder  1.96121 3.52217 22.546
RightArm  -31.4033 -7.38695 57.2985
RightForeArm  72.2751 -4.82481 1.1908
RightHand  -0.0153054 -5.3706 -17.8472
LeftUpLeg  -26.2871 0.673324 -7.61319
LeftLeg  29.2201 19.0387 11.4497
LeftFoot  -13.3148 0.126367 2.69222
LeftToes  -1.9349e-011 5.45182e-011 1.33515e-010
1603
root  88.9884 38.1644 95.2575 -170.224 77.809 -179.447
RightUpLeg  -30.4426 2.63086 1.61327
RightLeg  44.7523 -9.98019 -10.704
RightFoot  -4.22635 35.2083 -157.081
RightToes  6.35937e-011 1.2921e-014 -6.02303e-014
Spine  -0.0295525 -0.993115 -5.5448
Spine1  9.52904 1.04314 -6.02695
HEad  40.9137 59.748 -0.190647
LeftShoulder1  1.57173 -3.36881 -17.1322
LeftArm  0.657194 -21.8222 -57.2768
LeftForeArm  43.1215 7.61917 -13.1963
LeftHand  -0.0323065 4.80322 1.50904
RightShoulder  1.89402 3.18523 23.0225
RightArm  -32.193 -8.65526 55.5606
RightForeArm  70.8779 -4.81705 0.819043
RightHand  -0.0470446 -5.1611 -17.7369
LeftUpLeg  -22.6158 -0.19719 -7.13749
LeftLeg  26.0258 18.4009 10.0502
LeftFoot  -13.3896 0.152706 4.03837
LeftToes  -1.9349e-011 5.45182e-011 1.33515e-010
